<svg version="1.1" id="Layer_1" xmlns="http://www.w3.org/2000/svg" xmlns:xlink="http://www.w3.org/1999/xlink" x="0px" y="0px"
	 width="100%" viewBox="0 0 1024 1024" enable-background="new 0 0 1024 1024" xml:space="preserve">
<path fill="#000000" opacity="1.000000" stroke="none" 
	d="
M250.987381,719.058105 
	C186.935638,718.985107 131.332703,674.045959 118.067619,611.711792 
	C116.026970,602.122620 115.222549,592.260437 116.482643,582.402588 
	C118.128914,569.523682 117.007774,556.448669 119.404037,543.614746 
	C122.162285,528.841980 125.965874,514.401428 132.037384,500.607880 
	C134.536453,494.930389 134.260513,494.481720 128.424652,493.532715 
	C119.766090,492.124695 116.317032,488.269196 115.878838,479.638428 
	C115.606445,474.273224 116.252480,468.956268 117.212463,463.739655 
	C119.046654,453.772491 126.542824,447.877014 137.151047,447.731995 
	C145.982300,447.611267 154.819153,447.562683 163.647812,447.750488 
	C167.222961,447.826508 170.045975,446.749298 172.743301,444.502441 
	C199.029861,422.605713 229.689301,412.798920 263.475739,413.907532 
	C306.634216,415.323669 342.742920,432.432495 370.717865,465.766510 
	C375.619537,471.607208 375.541138,471.705383 382.786987,468.731964 
	C394.186127,464.054077 405.540100,459.264008 416.981659,454.692749 
	C420.003052,453.485565 421.071930,451.952911 420.289398,448.639069 
	C417.195831,435.538269 417.273010,435.468048 403.906097,436.435028 
	C397.250916,436.916504 390.622864,437.303650 383.957703,436.494934 
	C378.918030,435.883423 374.688019,433.822296 371.380188,430.024078 
	C363.910736,421.447266 354.895660,415.734680 343.504059,413.733856 
	C337.052521,412.600708 334.829102,409.625916 335.722321,403.152344 
	C337.350739,391.350342 345.173584,383.777985 360.335938,387.165344 
	C367.151367,388.687988 373.834869,390.802338 380.575500,392.658234 
	C401.472961,398.411926 422.562683,399.163849 443.875214,395.294281 
	C450.783203,394.040039 457.544128,394.139679 463.081848,399.491486 
	C465.278931,401.614807 467.222229,400.559784 469.323517,399.163818 
	C495.313019,381.898163 523.526855,370.037933 554.300354,364.526947 
	C581.583191,359.641052 608.846252,358.397461 636.013733,365.415649 
	C637.261719,365.738037 638.581726,365.782104 640.686951,366.066376 
	C637.613098,356.323914 634.544128,347.240601 627.227722,340.495605 
	C623.432739,336.996948 618.511414,336.001404 613.277405,336.107605 
	C601.782654,336.340790 590.280518,336.446136 578.784546,336.321014 
	C568.594543,336.210144 563.206238,330.238983 563.679321,320.105286 
	C563.966248,313.959198 568.502502,308.631592 575.685364,308.197510 
	C595.819275,306.980804 616.024597,306.321960 635.428894,313.489349 
	C643.636597,316.521027 650.129517,321.907196 654.828491,329.320831 
	C656.520020,331.989685 657.944397,334.827423 659.502991,337.581146 
	C661.045837,340.307068 661.844666,343.988098 665.071960,344.965637 
	C668.848450,346.109558 669.544067,341.754547 671.641541,339.944550 
	C682.940674,330.193634 696.591858,326.179474 710.834778,323.763428 
	C718.027954,322.543213 725.332947,321.750580 732.677856,322.408905 
	C741.385132,323.189362 746.949402,328.070679 750.345947,335.888824 
	C752.685669,341.274323 754.558838,346.879395 755.053894,352.647491 
	C756.068359,364.466614 755.935242,376.223877 751.221313,387.540863 
	C746.329041,399.286316 739.837463,403.682739 727.020874,403.396393 
	C719.291138,403.223694 711.855225,401.396240 704.362671,399.838562 
	C702.263428,399.402161 700.197876,398.740601 697.967896,399.243164 
	C696.445190,401.513916 697.051331,403.776306 698.032776,405.904694 
	C706.338562,423.916687 716.284729,441.089874 725.140686,458.820923 
	C726.795715,462.134583 729.119507,461.582886 731.819946,460.470795 
	C748.851562,453.456787 766.642395,450.273926 784.991760,450.946411 
	C821.121277,452.270477 853.510498,463.611267 880.830078,487.897766 
	C882.551514,489.428040 884.032227,491.280365 885.398071,493.148651 
	C888.272461,497.080292 888.245850,501.117767 884.429810,504.270966 
	C881.288025,506.866943 881.775635,509.050995 883.820923,511.882355 
	C893.748596,525.625549 901.743652,540.302002 905.771240,556.953369 
	C916.026245,599.351746 907.637207,637.574890 879.637451,671.049683 
	C857.170410,697.909973 827.928284,713.309387 793.443420,717.900513 
	C728.750977,726.513184 666.443848,688.571411 647.110046,627.721741 
	C631.786926,579.495239 643.711487,536.059692 677.595459,498.639282 
	C683.089478,492.571838 689.130798,487.068237 695.801331,482.314758 
	C698.611389,480.312317 699.231873,478.199768 697.562500,475.111115 
	C688.295898,457.965973 679.122742,440.770386 669.888184,423.607849 
	C669.271729,422.462158 668.671143,421.206543 667.197083,420.723846 
	C664.758850,421.152405 664.454224,423.349457 663.771240,425.143402 
	C647.598083,467.625275 631.481934,510.128937 615.250916,552.588684 
	C613.625000,556.841980 613.843567,559.565369 617.922058,562.717590 
	C630.886841,572.738037 634.181396,586.862427 631.575012,602.148193 
	C627.006897,628.939575 604.758911,647.493408 575.810913,647.918091 
	C533.488770,648.539001 491.145538,648.599304 448.823853,648.004333 
	C427.814178,647.709045 407.315063,642.539368 386.867279,637.864502 
	C377.067963,635.624207 378.359436,634.846313 374.074188,643.988098 
	C362.602173,668.461792 344.101044,686.625610 321.027161,700.169922 
	C299.617859,712.737061 276.353790,719.003296 250.987381,719.058105 
M725.251099,566.982666 
	C727.766113,561.841003 731.160034,557.296570 735.155396,553.259460 
	C737.513062,550.877136 737.904175,548.831787 736.202698,545.811646 
	C731.382019,537.254944 726.781372,528.570923 722.257874,519.852112 
	C720.371765,516.216675 718.420166,516.015381 715.313110,518.522156 
	C705.337158,526.570923 697.225647,535.970520 691.244812,547.463318 
	C674.898499,578.874390 676.242981,609.733704 695.675598,638.772095 
	C726.420715,684.714600 790.857727,697.612244 836.170776,659.717224 
	C858.924194,640.688721 871.550049,616.519348 870.524719,586.509644 
	C869.789368,564.986877 861.762024,545.832275 847.012939,530.050903 
	C821.564209,502.820892 790.427856,492.621735 753.745972,500.489136 
	C748.817566,501.546143 748.257996,502.889404 750.635132,507.517273 
	C755.200073,516.404175 760.018677,525.160645 764.604553,534.037048 
	C765.728271,536.212097 767.301331,536.934875 769.469177,536.400085 
	C774.477295,535.164551 779.403015,536.084900 784.347656,536.755188 
	C805.793457,539.662109 824.949829,557.112610 829.235596,577.642883 
	C835.616455,608.209351 817.787354,636.001099 786.775940,642.281189 
	C765.783020,646.532471 747.293152,640.416992 733.123291,624.140198 
	C718.466980,607.304810 716.540039,588.112244 725.251099,566.982666 
M169.575531,543.096436 
	C162.831009,555.265198 157.333130,567.851746 156.336243,581.984314 
	C154.328079,610.453491 164.535583,634.315369 184.589569,653.910767 
	C215.913254,684.518188 260.262360,690.279907 298.885498,669.357849 
	C313.861725,661.245300 325.788818,649.887878 334.570190,635.280212 
	C338.573273,628.621216 338.107239,627.321411 330.734314,625.574646 
	C322.804993,623.696167 314.729492,622.396606 306.865570,620.292114 
	C300.683716,618.637756 295.886169,619.123169 292.757385,625.439270 
	C292.061493,626.844116 290.511627,627.870789 289.244812,628.941162 
	C267.934906,646.945251 240.627380,648.597961 217.795273,632.349548 
	C200.905060,620.329590 193.394791,603.044006 196.540237,582.696350 
	C200.810394,555.073059 224.263550,535.947449 252.289490,535.863098 
	C257.132050,535.848572 258.436279,533.806396 258.564453,529.758484 
	C258.806976,522.097961 258.546204,514.462036 257.976135,506.810669 
	C257.363220,498.583832 256.852325,497.695740 248.463928,498.111481 
	C214.912537,499.774231 188.665070,514.477600 169.575531,543.096436 
M476.959137,476.045807 
	C481.656494,478.615692 484.980804,482.476746 487.310974,487.220825 
	C489.732788,492.151459 492.251007,497.047333 494.386475,502.102325 
	C496.333771,506.711731 500.179352,505.632294 503.724060,505.862701 
	C507.322662,506.096619 507.380157,503.506317 508.087799,501.054657 
	C511.019043,490.899017 519.722534,483.383545 529.470825,482.712036 
	C549.430908,481.337067 569.429810,481.822388 589.401733,482.125946 
	C602.395081,482.323456 615.156128,488.033325 618.347961,503.890137 
	C618.461975,504.456543 618.967590,504.944092 619.317505,505.511780 
	C622.903931,502.215149 635.991455,468.459045 635.978577,462.780670 
	C633.635254,461.769348 631.840088,463.304047 629.980957,464.216827 
	C623.438721,467.428925 616.545227,469.101593 609.266724,469.103790 
	C563.295715,469.117798 517.324707,469.106140 471.353668,469.126129 
	C468.002716,469.127594 464.641388,469.062042 461.489197,467.906616 
	C458.608307,466.850677 456.027435,467.208435 453.284515,468.353821 
	C439.770813,473.997009 426.196625,479.495392 412.686920,485.148010 
	C405.354218,488.216095 397.737915,490.658691 390.261627,494.829407 
	C398.175079,511.005219 403.554779,527.788940 405.951477,546.904175 
	C414.206909,540.343018 422.566559,539.082214 431.370239,539.468628 
	C433.200043,539.548950 433.278503,537.649292 433.813477,536.217346 
	C436.827698,528.148682 435.733551,520.997742 431.118164,513.531250 
	C425.189911,503.940918 427.758331,494.746857 437.056183,488.418030 
	C445.362701,482.763947 454.491119,478.698151 463.963745,475.448120 
	C468.000854,474.062988 472.162811,474.276550 476.959137,476.045807 
M543.498291,612.309875 
	C510.336487,612.311401 477.168701,612.693604 444.015198,612.169922 
	C424.516571,611.861938 408.879395,603.509338 399.839081,585.503052 
	C397.043915,579.935669 393.355621,581.289429 389.029633,581.987366 
	C384.386902,582.736450 385.599243,586.045471 385.515839,588.871216 
	C385.437225,591.535278 385.683289,594.241394 385.296661,596.856689 
	C384.591919,601.624023 386.820312,603.756165 391.126221,605.055908 
	C397.975037,607.123474 404.654114,609.746216 411.470276,611.930298 
	C427.028290,616.915588 442.711304,621.572510 459.227570,621.635986 
	C495.721771,621.776245 532.216919,621.647156 568.711548,621.707520 
	C572.747253,621.714172 576.727783,621.343506 580.603821,620.437988 
	C593.013306,617.538879 601.409363,610.316833 604.204590,597.500916 
	C605.164124,593.101746 604.557495,589.007446 601.161682,585.869629 
	C599.436890,586.119812 598.944824,587.237000 598.350098,588.217712 
	C595.185669,593.435791 590.858032,597.598938 586.036682,601.190918 
	C573.695007,610.385559 559.597961,613.286011 543.498291,612.309875 
M328.237885,560.678040 
	C330.156769,560.155396 332.068085,559.603027 333.995911,559.115784 
	C339.258362,557.785645 339.710480,556.999023 337.680298,552.054199 
	C334.165894,543.494080 328.647034,536.278687 322.528534,529.443970 
	C320.092773,526.723083 318.255005,527.011719 316.214020,529.851868 
	C311.348267,536.622742 309.365601,544.040955 310.281219,552.374268 
	C311.342865,562.036865 313.612152,563.845581 323.077240,561.866394 
	C324.535706,561.561462 325.984619,561.210876 328.237885,560.678040 
M294.983673,460.644684 
	C291.994629,465.671387 292.681396,468.338989 297.714264,470.169128 
	C308.378815,474.047180 318.559814,478.900909 327.772217,485.533051 
	C331.547913,488.251190 334.329468,487.083160 338.225250,484.232147 
	C325.188171,473.449982 311.743103,464.723419 294.983673,460.644684 
M252.266724,454.446747 
	C237.351364,456.380798 223.009125,459.976746 210.384247,468.718689 
	C224.569916,466.666565 238.665054,464.689362 252.973862,464.782074 
	C256.100159,464.802307 256.324921,462.097931 256.630554,459.755157 
	C256.995178,456.959961 256.502594,454.726624 252.266724,454.446747 
M431.703979,446.469391 
	C435.010742,448.150513 437.261566,447.132141 437.556549,443.505768 
	C437.897308,439.316803 437.635834,435.078827 437.635834,430.856659 
	C427.034088,432.083649 426.646881,432.686005 430.092621,442.613434 
	C430.472015,443.706482 430.938538,444.769348 431.703979,446.469391 
M364.800873,513.709229 
	C362.752441,511.237885 362.112885,506.453369 356.309662,509.002747 
	C362.835999,517.781799 368.142426,526.919861 374.236206,535.580750 
	C372.858612,527.748047 369.264374,520.928589 364.800873,513.709229 
z"/>
</svg>