<svg version="1.0" xmlns="http://www.w3.org/2000/svg"
 width="300.000000pt" height="300.000000pt" viewBox="0 0 300.000000 300.000000"
 preserveAspectRatio="xMidYMid meet">
<g transform="translate(0.000000,300.000000) scale(0.100000,-0.100000)">
<path d="M1837 2365 c-8 -19 -5 -20 125 -64 l111 -37 28 -80 c16 -43 29 -82
29 -87 0 -4 -24 6 -53 22 -160 91 -382 76 -545 -36 -49 -33 -103 -93 -115
-126 -3 -8 -14 -3 -31 13 l-28 25 -434 3 c-494 3 -487 4 -524 -72 -22 -46 -28
-154 -9 -173 6 -6 30 -8 55 -5 24 2 44 2 44 -1 0 -3 -27 -20 -60 -38 -36 -19
-85 -58 -120 -96 -60 -64 -126 -175 -115 -193 13 -21 32 -8 54 38 54 111 152
203 272 254 l54 23 750 5 c413 3 751 4 753 4 1 -1 -67 -140 -153 -310 -166
-331 -194 -372 -271 -393 -26 -7 -269 -11 -734 -11 l-695 0 0 65 0 65 678 0
c670 0 677 0 677 20 0 19 -7 20 -234 20 l-233 0 -5 79 c-17 286 -331 465 -593
337 -131 -65 -224 -209 -226 -353 l-1 -63 -49 0 -49 0 0 -105 0 -105 90 0 89
0 46 -44 c155 -152 416 -151 567 0 l43 44 296 0 c346 0 374 5 445 75 35 35 81
119 239 435 107 215 197 386 199 378 3 -7 21 -63 40 -123 20 -61 36 -113 36
-117 0 -3 -24 -19 -53 -36 -69 -39 -132 -109 -170 -190 -29 -61 -32 -75 -32
-167 0 -96 2 -104 37 -176 155 -314 591 -316 744 -4 121 248 -33 540 -309 588
-45 7 -82 8 -120 1 l-55 -10 -38 115 c-52 154 -50 145 -25 131 12 -6 52 -10
89 -8 l67 3 3 149 c1 85 -2 153 -7 160 -7 8 -33 10 -84 6 -79 -7 -130 -32
-142 -70 -4 -11 -9 -20 -13 -20 -4 0 -20 42 -37 93 l-30 92 -120 42 c-137 47
-141 48 -148 28z m543 -326 l0 -119 -45 0 c-86 0 -135 47 -135 129 0 62 42
103 111 111 30 3 57 4 62 2 4 -2 7 -57 7 -123z m-425 87 c106 -28 197 -90 214
-146 11 -37 9 -44 -29 -120 l-40 -80 -335 0 -335 0 0 48 c0 73 17 116 65 169
101 114 305 171 460 129z m-605 -181 c33 -17 38 -29 42 -105 l3 -55 -487 -3
-488 -2 0 50 c0 55 19 103 47 119 12 7 171 11 436 11 351 0 423 -2 447 -15z
m-549 -341 c157 -46 269 -190 269 -344 l0 -60 -60 0 -60 0 0 53 c0 111 -84
212 -197 238 -151 35 -303 -84 -303 -237 l0 -54 -59 0 c-69 0 -72 5 -60 98 31
222 255 369 470 306z m1795 -24 c131 -64 207 -187 207 -335 0 -150 -75 -270
-211 -337 -60 -30 -75 -33 -157 -33 -80 0 -97 3 -155 31 -147 70 -229 208
-218 365 9 121 90 249 190 300 20 10 39 19 42 19 3 0 13 -26 23 -57 15 -47 15
-57 4 -61 -31 -10 -96 -80 -117 -127 -56 -119 -3 -262 121 -328 56 -30 164
-30 221 0 57 30 111 97 129 157 19 63 19 80 -1 145 -32 108 -160 194 -264 177
l-38 -6 -20 59 -20 60 26 5 c15 2 60 3 101 1 58 -3 88 -10 137 -35z m-1835
-131 c86 -26 148 -110 149 -201 l0 -48 -210 0 -210 0 0 50 c0 62 27 119 75
157 62 50 124 63 196 42z m1733 0 c21 -6 58 -29 82 -51 123 -113 75 -312 -87
-358 -53 -15 -90 -12 -145 14 -110 51 -152 170 -100 282 20 43 78 104 99 104
3 0 20 -44 37 -97 18 -54 38 -104 46 -112 28 -30 26 18 -5 111 -17 51 -31 99
-31 106 0 15 51 16 104 1z m-1529 -469 c-14 -23 -103 -74 -157 -92 -109 -33
-226 -15 -321 51 -25 17 -49 36 -52 41 -4 7 89 10 265 10 176 0 269 -3 265
-10z"/>
<path d="M1083 1603 c-9 -24 9 -33 66 -33 38 0 63 5 70 14 18 21 -2 29 -72 30
-38 1 -61 -3 -64 -11z"/>
<path d="M1320 1599 c0 -7 30 -70 67 -140 l68 -129 130 0 130 0 68 129 c37 70
67 133 67 140 0 8 -74 11 -265 11 -192 0 -265 -3 -265 -11z m478 -29 c-2 -3
-27 -49 -56 -103 l-54 -98 -105 3 -105 3 -54 99 c-30 54 -54 99 -54 100 0 1
97 1 215 1 118 0 214 -2 213 -5z"/>
<path d="M1142 1473 c3 -15 14 -18 73 -18 56 0 70 3 70 15 0 12 -16 16 -73 18
-66 3 -73 1 -70 -15z"/>
<path d="M1185 1360 c-13 -21 8 -30 76 -30 62 0 70 2 67 18 -3 14 -16 18 -70
20 -38 2 -69 -1 -73 -8z"/>
</g>
</svg>
